<svg width="72" height="20" xmlns="http://www.w3.org/2000/svg" xmlns:svg="http://www.w3.org/2000/svg">

 <g class="layer">
  <title>Layer 1</title>
  <path d="m0.9,19.13l0,-17.45l3.69,0l0,7.2l7.49,0l0,-7.2l3.68,0l0,17.45l-3.68,0l0,-7.21l-7.49,0l0,7.21l-3.69,0zm17.84,0l0,-13.09l3.63,0l0,13.09l-3.63,0zm1.82,-14.78c-0.54,0 -1,-0.18 -1.39,-0.54c-0.38,-0.36 -0.57,-0.79 -0.57,-1.3c0,-0.5 0.19,-0.93 0.57,-1.29c0.39,-0.36 0.85,-0.54 1.39,-0.54c0.54,0 1,0.18 1.38,0.54c0.39,0.36 0.58,0.79 0.58,1.29c0,0.51 -0.19,0.94 -0.58,1.3c-0.38,0.36 -0.84,0.54 -1.38,0.54z" fill="#333333" id="svg_1" transform="matrix(1, 0, 0, 1, 0, 0)"/>
  <path d="m29.27,1.67l0,17.45l-3.63,0l0,-17.45l3.63,0zm2.91,17.45l0,-13.09l3.63,0l0,13.09l-3.63,0zm1.83,-14.78c-0.54,0 -1.01,-0.18 -1.39,-0.54c-0.38,-0.36 -0.57,-0.79 -0.57,-1.3c0,-0.5 0.19,-0.93 0.57,-1.29c0.38,-0.36 0.85,-0.54 1.39,-0.54c0.54,0 1,0.18 1.38,0.54c0.38,0.36 0.58,0.79 0.58,1.29c0,0.51 -0.2,0.94 -0.58,1.3c-0.38,0.36 -0.84,0.54 -1.38,0.54zm8.34,7.21l0,7.57l-3.63,0l0,-13.09l3.46,0l0,2.31l0.16,0c0.29,-0.76 0.77,-1.36 1.45,-1.81c0.69,-0.45 1.51,-0.67 2.48,-0.67c0.91,0 1.71,0.2 2.38,0.6c0.68,0.39 1.2,0.96 1.58,1.7c0.37,0.73 0.56,1.61 0.56,2.62l0,8.34l-3.63,0l0,-7.69c0.01,-0.8 -0.2,-1.42 -0.61,-1.87c-0.42,-0.46 -0.99,-0.68 -1.72,-0.68c-0.49,0 -0.92,0.1 -1.29,0.31c-0.37,0.21 -0.66,0.52 -0.87,0.92c-0.21,0.4 -0.31,0.88 -0.32,1.44zm14.59,3.8l0.01,-4.35l0.53,0l4.19,-4.97l4.17,0l-5.63,6.58l-0.86,0l-2.41,2.74zm-3.29,3.77l0,-17.45l3.63,0l0,17.45l-3.63,0zm8.18,0l-3.85,-5.7l2.42,-2.57l5.69,8.27l-4.26,0zm7.91,0.22c-0.56,0 -1.04,-0.2 -1.45,-0.59c-0.39,-0.41 -0.59,-0.89 -0.59,-1.45c0,-0.56 0.2,-1.04 0.59,-1.44c0.41,-0.39 0.89,-0.59 1.45,-0.59c0.55,0 1.03,0.2 1.43,0.59c0.41,0.4 0.62,0.88 0.62,1.44c0,0.37 -0.1,0.71 -0.29,1.03c-0.19,0.3 -0.44,0.55 -0.74,0.74c-0.31,0.18 -0.65,0.27 -1.02,0.27z" fill="#3f007f" id="svg_2"/>
  <path d="m71.25,7.25c-1.53,0.15 -2.72,0.78 -3.84,1.47l-0.54,0.8l0,0.89l0,0.86" fill="none" id="svg_3" stroke="null" stroke-dasharray="null" stroke-linecap="null" stroke-linejoin="null" stroke-opacity="null"/>
  <circle cx="34" cy="2.87" fill="#191919" id="svg_5" r="2.2" stroke="null" stroke-dasharray="null" stroke-linecap="null" stroke-linejoin="null" stroke-opacity="null"/>
  <circle cx="69.69" cy="12.31" fill="#aa56ff" id="svg_7" r="2.14" stroke="null" stroke-dasharray="null" stroke-linecap="null" stroke-linejoin="null" stroke-opacity="null"/>
  <circle cx="20.44" cy="2.87" fill="#3f007f" id="svg_8" r="2.2" stroke="null" stroke-dasharray="null" stroke-linecap="null" stroke-linejoin="null" stroke-opacity="null"/>
 </g>
</svg>
